{"title":"Otto; or, Up with Dead People (2008) BRRIP 1080P Gay Intrest","uid":10484268,"size":5143660734,"categoryP":"video","categoryS":"hd___movies","magnet":"?xt=urn:btih:9f2dd4dfdf5c18eee5cfe4ec8af322035880f9b0&amp;dn=Otto%3B+or%2C+Up+with+Dead+People+%282008%29+BRRIP+1080P+Gay+Intrest&amp;tr=udp%3A%2F%2Ftracker.openbittorrent.com%3A80&amp;tr=udp%3A%2F%2Fopen.demonii.com%3A1337&amp;tr=udp%3A%2F%2Ftracker.coppersurfer.tk%3A6969&amp;tr=udp%3A%2F%2Fexodus.desync.com%3A6969","seeders":4,"leechers":0,"uploader":"jmanwf","files":3,"time":1404443372,"description":"Storyline\n\nOtto is a handsome, sensitive, neo-Goth zombie with an identity crisis wandering the streets of the city, until one day he auditions for a zombie film...\n\n\nFormat : MPEG-4\nFormat profile : Base Media\nCodec ID : isom\nFile size : 4.79 GiB\nDuration : 1h 34mn\nOverall bit rate mode : Variable\nOverall bit rate : 7 275 Kbps\nWriting application : Lavf54.59.106\n\nVideo\nID : 1\nFormat : AVC\nFormat/Info : Advanced Video Codec\nFormat profile : &lt;a class=&quot;__cf_email__&quot; href=&quot;/cdn-cgi/l/email-protection&quot; data-cfemail=&quot;b6fedfd1def6fa829886&quot;&gt;[email&amp;#160;protected]&lt;/a&gt;&lt;script cf-hash='f9e31' type=&quot;text/javascript&quot;&gt;\n/* &lt;![CDATA[ */!function(){try{var t=&quot;currentScript&quot;in document?document.currentScript:function(){for(var t=document.getElementsByTagName(&quot;script&quot;),e=t.length;e--;)if(t[e].getAttribute(&quot;cf-hash&quot;))return t[e]}();if(t&amp;&amp;t.previousSibling){var e,r,n,i,c=t.previousSibling,a=c.getAttribute(&quot;data-cfemail&quot;);if(a){for(e=&quot;&quot;,r=parseInt(a.substr(0,2),16),n=2;a.length-n;n+=2)i=parseInt(a.substr(n,2),16)^r,e+=String.fromCharCode(i);e=document.createTextNode(e),c.parentNode.replaceChild(e,c)}}}catch(u){}}();/* ]]&gt; */&lt;/script&gt;\nFormat settings, CABAC : Yes\nFormat settings, ReFrames : 4 frames\nCodec ID : avc1\nCodec ID/Info : Advanced Video Coding\nDuration : 1h 34mn\nBit rate : 7 096 Kbps\nWidth : 1 920 pixels\nHeight : 1 080 pixels\nDisplay aspect ratio : 16:9\nFrame rate mode : Constant\nFrame rate : 25.000 fps\nColor space : YUV\nChroma subsampling : 4:2:0\nBit depth : 8 bits\nScan type : Progressive\nBits/(Pixel*Frame) : 0.137\nStream size : 4.70 GiB (98%)\nWriting library : x264 core 123\nAudio\nID : 2\nFormat : AAC\nFormat/Info : Advanced Audio Codec\nFormat profile : LC\nCodec ID : 40\nDuration : 1h 34mn\nBit rate mode : Variable\nBit rate : 132 Kbps\nMaximum bit rate : 192 Kbps\nChannel(s) : 2 channels\nChannel(s)_Original : 6 channels\nChannel positions : Front: L C R, Side: L R, LFE\nSampling rate : 48.0 KHz\nCompression mode : Lossy\nStream size : 88.5 MiB (2%)\n\n\n &lt;a href=&quot;\nhttp://www.imdb.com/title/tt1151384/&quot; rel=&quot;nofollow&quot; target=&quot;_NEW&quot;&gt;\nhttp://www.imdb.com/title/tt1151384/&lt;/a&gt;","torrent":{"xt":"urn:btih:9f2dd4dfdf5c18eee5cfe4ec8af322035880f9b0","amp;dn":"Otto%3B+or%2C+Up+with+Dead+People+%282008%29+BRRIP+1080P+Gay+Intrest","amp;tr":["udp%3A%2F%2Ftracker.openbittorrent.com%3A80","udp%3A%2F%2Fopen.demonii.com%3A1337","udp%3A%2F%2Ftracker.coppersurfer.tk%3A6969","udp%3A%2F%2Fexodus.desync.com%3A6969"],"infoHash":"9f2dd4dfdf5c18eee5cfe4ec8af322035880f9b0","infoHashBuffer":{"type":"Buffer","data":[159,45,212,223,223,92,24,238,229,207,228,236,138,243,34,3,88,128,249,176]},"announce":[],"urlList":[]}}